<svg xmlns="http://www.w3.org/2000/svg" height="400" width="942.1" xml:space="preserve">
  <defs>
      <clipPath id="a" clipPathUnits="userSpaceOnUse">
          <path d="M0 333.212h706.575V0H0Z"/>
      </clipPath>
  </defs>
  <g clip-path="url(#a)" transform="matrix(1.33333 0 0 -1.33333 0 444.283)">
      <path style="fill:#7f8082;fill-opacity:1;fill-rule:nonzero;stroke:none" d="M0 0c-24.144-.025-36.714-12.283-46.823-27.506-.714-1.076-73.875-106.213-73.875-106.213h79.535l53.728 76.44c7.433 10.675 15.601 16.584 28.029 18.207.026.023 1.567.187 1.59.193L15.032 0Z" transform="translate(177.555 276.304)"/>
      <path style="fill:#dede44;fill-opacity:1;fill-rule:nonzero;stroke:none" d="m0 0-7.71-.006c-7.9 0-14.541 4.293-17.873 8.565l-31.424 44.97h-32.351l27.111-38.834L-46.94-7.18c4.98-7.006 14.958-11.681 25.345-11.681h8.44z" transform="translate(281.945 222.774)"/>
      <path style="fill:#7f8082;fill-opacity:1;fill-rule:nonzero;stroke:none" d="M0 0c-6.143 8.643-19.769 20.043-39.469 20.043h-51.544l-17.834-25.541-13.041-18.699h49.819c5.466 0 23.181-1.08 35.282-21.836l5.07-7.238 7.807-11.142h69.058z" transform="translate(390.678 228.11)"/>
  </g>
</svg>